HIERARCHY
ROOT RootJoint
{
    OFFSET   0.000000   0.000000   0.000000
    CHANNELS 6 Xposition Yposition Zposition Xrotation Yrotation Zrotation
    JOINT pelvis_lowerback
    {
        OFFSET   0.000000   0.093605   0.000000
        CHANNELS 3 Xrotation Yrotation Zrotation
        JOINT lowerback_torso
        {
            OFFSET   0.000000   0.100000   0.000000
            CHANNELS 3 Xrotation Yrotation Zrotation
            JOINT torso_head
            {
                OFFSET   0.000000   0.282350   0.000000
                CHANNELS 3 Xrotation Yrotation Zrotation
                End Site
                {
                    OFFSET   0.000000   0.192650   0.000000
                }
            }
            JOINT rTorso_Clavicle
            {
                OFFSET  -0.001000   0.157500   0.000000
                CHANNELS 3 Xrotation Yrotation Zrotation
                JOINT rShoulder
                {
                    OFFSET  -0.117647   0.000000   0.000000
                    CHANNELS 3 Xrotation Yrotation Zrotation
                    JOINT rElbow
                    {
                        OFFSET  -0.245000   0.000000   0.000000
                        CHANNELS 3 Xrotation Yrotation Zrotation
                        JOINT rWrist
                        {
                            OFFSET  -0.240000   0.000000   0.000000
                            CHANNELS 3 Xrotation Yrotation Zrotation
                            End Site
                            {
                                OFFSET  -0.116353  -0.002500   0.000000
                            }
                        }
                    }
                }
            }
            JOINT lTorso_Clavicle
            {
                OFFSET   0.001000   0.157500   0.000000
                CHANNELS 3 Xrotation Yrotation Zrotation
                JOINT lShoulder
                {
                    OFFSET   0.117647   0.000000   0.000000
                    CHANNELS 3 Xrotation Yrotation Zrotation
                    JOINT lElbow
                    {
                        OFFSET   0.245000   0.000000   0.000000
                        CHANNELS 3 Xrotation Yrotation Zrotation
                        JOINT lWrist
                        {
                            OFFSET   0.240000   0.000000   0.000000
                            CHANNELS 3 Xrotation Yrotation Zrotation
                            End Site
                            {
                                OFFSET   0.116353  -0.002500   0.000000
                            }
                        }
                    }
                }
            }
        }
    }
    JOINT rHip
    {
        OFFSET  -0.100000  -0.051395   0.000000
        CHANNELS 3 Xrotation Yrotation Zrotation
        JOINT rKnee
        {
            OFFSET   0.000000  -0.410000   0.000000
            CHANNELS 3 Xrotation Yrotation Zrotation
            JOINT rAnkle
            {
                OFFSET   0.000000  -0.390000   0.000000
                CHANNELS 3 Xrotation Yrotation Zrotation
                JOINT rToeJoint
                {
                    OFFSET   0.000000  -0.050000   0.130000
                    CHANNELS 3 Xrotation Yrotation Zrotation
                    End Site
                    {
                        OFFSET  -0.010000   0.002000   0.060000
                    }
                }
            }
        }
    }
    JOINT lHip
    {
        OFFSET   0.100000  -0.051395   0.000000
        CHANNELS 3 Xrotation Yrotation Zrotation
        JOINT lKnee
        {
            OFFSET   0.000000  -0.410000   0.000000
            CHANNELS 3 Xrotation Yrotation Zrotation
            JOINT lAnkle
            {
                OFFSET   0.000000  -0.390000   0.000000
                CHANNELS 3 Xrotation Yrotation Zrotation
                JOINT lToeJoint
                {
                    OFFSET   0.000000  -0.050000   0.130000
                    CHANNELS 3 Xrotation Yrotation Zrotation
                    End Site
                    {
                        OFFSET   0.010000   0.002000   0.060000
                    }
                }
            }
        }
    }
}
MOTION
Frames: 8
Frame Time:   0.008333
 -2.376719   0.925631   3.975860   0.000000   0.000000   0.000000   0.000000   0.000000   0.000000   0.000000   0.000000   0.000000   0.000000   0.000000   0.000000   0.000000   0.000000   0.000000   0.000000   0.000000   0.000000   0.000000   0.000000   0.000000   0.000000   0.000000   0.000000   0.000000   0.000000   0.000000   0.000000   0.000000   0.000000   0.000000   0.000000   0.000000   0.000000   0.000000   0.000000   0.000000   0.000000   0.000000   0.000000   0.000000   0.000000   0.000000   0.000000   0.000000   0.000000   0.000000   0.000000   0.000000   0.000000   0.000000   0.000000   0.000000   0.000000   0.000000   0.000000   0.000000   0.000000   0.000000   0.000000
 -2.377276   0.926348   3.975571  -0.880318   0.110904  -0.382040   1.050056   0.076686   0.220333   0.026555  -0.282796   0.200676  -0.145329  -0.192441   0.224901   0.163512  -0.211916   0.806711   1.429912   1.034588   1.510137   0.007096   0.341815  -0.005359   0.298476  -0.967973  -2.827598   0.172996   0.151854  -0.822717   1.717870  -0.502979  -1.614597  -0.001019   0.048483  -0.000884   0.242539   0.419792   2.755798   0.627554  -0.371072   0.620681   1.563192  -0.003296  -0.003554  -1.964709  -0.516104  -0.547439   0.220816   0.000596  -0.001518  -0.055931   0.208011   0.415861   2.737995  -0.000566   0.007650  -0.076917   0.189903  -0.270452  -0.018065  -0.000037  -0.000081
 -2.378051   0.927866   3.975241  -1.906288   0.144841  -0.740514   2.093573   0.209610   0.370280   0.164985  -0.514194   0.415668  -0.263519  -0.385007   0.463494   0.325120  -0.207593   2.377889   2.798457   2.267418   3.625085   0.018425   0.730165  -0.010068   0.626426  -1.659217  -4.945627   0.350394   0.155608  -2.389303   3.397350  -1.150711  -3.831183  -0.001330   0.064017  -0.000983   0.533978   0.768845   4.789667   1.462719  -0.720440   1.333134   3.298821  -0.008289  -0.007498  -3.806357  -0.986590  -1.073959   0.333469   0.000643  -0.002014  -0.237008   0.350950   0.834285   5.203884  -0.000983   0.010100  -0.558993   0.310174  -0.424873  -1.757114  -0.001600  -0.004768
 -2.378893   0.929571   3.975170  -2.947830   0.118834  -1.079733   3.034616   0.379668   0.503664   0.300466  -0.686157   0.611369  -0.370343  -0.566192   0.685254   0.469095  -0.071344   4.375233   4.084757   3.646483   6.123719   0.030803   1.131347  -0.013380   0.949875  -2.075691  -6.186029   0.509386   0.071515  -4.387036   5.019741  -1.929494  -6.439210  -0.000665   0.054219  -0.000630   0.825379   0.956594   5.948109   2.429696  -1.029355   2.102468   4.998825  -0.013587  -0.010645  -5.526913  -1.408613  -1.577988   0.433201   0.000575  -0.002303  -0.467786   0.563763   1.210592   7.798961  -0.000398   0.012566  -0.783284   0.513448  -0.612959  -3.866935  -0.003929  -0.011565
 -2.379775   0.931125   3.975353  -3.941307   0.062237  -1.379206   3.857061   0.569256   0.605229   0.390138  -0.814934   0.782182  -0.478234  -0.736004   0.890464   0.594670   0.133360   6.601078   5.282721   5.139418   8.871578   0.042267   1.529977  -0.015434   1.271814  -2.298404  -6.778620   0.646990  -0.053709  -6.614653   6.580970  -2.821791  -9.299538   0.000624   0.028543  -0.000124   1.116771   1.012101   6.466351   3.452379  -1.298813   2.889844   6.628148  -0.018593  -0.012599  -7.135638  -1.787542  -2.059928   0.519853   0.000451  -0.002410  -0.709501   0.789130   1.552271  10.311538   0.000278   0.014052  -0.951710   0.740205  -0.781443  -5.381742  -0.004442  -0.015086
 -2.380659   0.932293   3.975730  -4.868665  -0.013456  -1.631576   4.573621   0.770644   0.676396   0.432471  -0.910415   0.925954  -0.589467  -0.895032   1.079468   0.703857   0.368132   8.923046   6.388689   6.723506  11.778978   0.051742   1.916367  -0.016556   1.589102  -2.399517  -6.936897   0.764948  -0.190705  -8.942545   8.078238  -3.813125 -12.321625   0.002106  -0.005385   0.000371   1.404160   0.981751   6.555828   4.493020  -1.530358   3.675165   8.179142  -0.023003  -0.013447  -8.639751  -2.127878  -2.519780   0.595574   0.000310  -0.002388  -0.951855   1.001603   1.854784  12.698940   0.000789   0.014425  -1.091621   0.961999  -0.937772  -6.600348  -0.004256  -0.016459
 -2.381518   0.932922   3.976231  -5.726143  -0.100155  -1.834729   5.201933   0.978949   0.721455   0.437756  -0.978784   1.045762  -0.702741  -1.043982   1.252998   0.799344   0.613820  11.261108   7.393174   8.373983  14.770692   0.058860   2.286205  -0.017052   1.898514  -2.423597  -6.809640   0.866559  -0.325014 -11.287596   9.509188  -4.894615 -15.445895   0.003510  -0.043104   0.000797   1.683426   0.899401   6.369305   5.529723  -1.726823   4.447719   9.650050  -0.026676  -0.013369 -10.045805  -2.433721  -2.957670   0.662697   0.000169  -0.002284  -1.190077   1.194584   2.112841  14.952238   0.001115   0.013985  -1.226495   1.169672  -1.082265  -7.788210  -0.003850  -0.017029
 -2.382082   0.932174   3.975657  -6.018311   0.061199  -1.826153   5.359968   1.010502   0.603810   0.524566  -1.007749   1.144278  -1.125947  -1.161207   1.296204   0.930003   1.046530  13.207836   8.683050  10.042207  17.415292   0.058792   2.567303  -0.018342   2.172847  -2.325584  -5.792206   1.015196  -0.574218 -12.984279  11.072783  -6.341690 -18.606422   0.006071  -0.117743   0.001935   1.791251   0.740606   5.383650   6.160578  -2.214795   4.994737  10.447828  -0.025562  -0.012214 -11.053154  -2.717626  -3.360104   1.020784  -0.000279  -0.003828  -2.396576   1.204848   2.068228  17.410821   0.004055   0.015226  -2.314108   1.502086  -1.107278  -7.139900  -0.002853  -0.010524
